<svg version="1.1" id="Layer_1" xmlns="http://www.w3.org/2000/svg" xmlns:xlink="http://www.w3.org/1999/xlink" x="0px" y="0px"
	 width="100%" viewBox="0 0 286 300" enable-background="new 0 0 286 300" xml:space="preserve">
<path fill="#000000" opacity="1.000000" stroke="none" 
	d="
M158.000000,0.999997 
	C200.923401,1.000000 243.846802,1.000000 287.000000,1.000000 
	C287.000000,39.687256 287.000000,78.374969 286.668457,117.804626 
	C283.878204,113.302132 281.759369,107.864388 278.904724,102.845123 
	C262.380646,73.791443 221.969299,66.226288 195.395416,87.007790 
	C193.248444,88.686783 190.670044,89.814110 188.653168,90.824875 
	C199.764954,75.517456 201.677307,58.909752 197.078186,41.647182 
	C191.929565,22.322071 178.709000,10.109521 160.328995,3.064833 
	C159.422089,2.717239 158.770493,1.703532 158.000000,0.999997 
z"/>
<path fill="#000000" opacity="1.000000" stroke="none" 
	d="
M1.000001,119.000000 
	C1.000000,79.737595 1.000000,40.475185 1.000000,1.000000 
	C42.353985,1.000000 83.708336,1.000000 125.862572,1.287823 
	C126.036201,2.045071 125.477951,2.715723 124.773506,2.953816 
	C113.734268,6.684918 104.466187,12.914872 97.312950,22.188416 
	C89.559708,32.239822 85.192139,43.521828 85.010437,56.285542 
	C84.816139,69.933998 88.990746,82.142769 96.893341,93.154907 
	C82.490860,81.978905 67.001244,75.761238 48.621208,78.982338 
	C27.919607,82.610306 13.523494,94.186577 4.860373,113.210068 
	C3.911419,115.293884 2.302705,117.077271 1.000001,119.000000 
z"/>
<path fill="#000000" opacity="1.000000" stroke="none" 
	d="
M77.000000,301.000000 
	C51.716011,301.000000 26.432026,301.000000 1.000000,301.000000 
	C1.000000,251.645859 1.000000,202.291595 1.349161,152.271454 
	C6.698295,161.376892 11.111698,171.481659 20.070938,178.636688 
	C32.467304,188.536713 46.173931,193.941513 62.270683,192.068893 
	C65.515594,191.691376 68.778313,191.466904 71.841385,191.476608 
	C70.723450,192.060867 69.738930,192.220749 68.879105,192.637741 
	C55.112064,199.314514 45.083538,209.583008 39.585899,223.929794 
	C33.406326,240.056183 34.421902,256.135498 42.257187,271.277740 
	C49.255127,284.801697 60.518444,294.053497 75.102371,299.020752 
	C75.870514,299.282379 76.373550,300.322357 77.000000,301.000000 
z"/>
<path fill="#000000" opacity="1.000000" stroke="none" 
	d="
M287.000000,147.000000 
	C287.000000,198.230118 287.000000,249.460251 287.000000,301.000000 
	C265.980133,301.000000 244.958725,301.000000 223.145813,300.696075 
	C222.834671,299.958191 223.249771,299.270172 223.804993,299.127533 
	C236.507797,295.863525 246.335342,288.244476 253.810043,277.911652 
	C262.151337,266.380829 265.800476,253.463882 264.178467,238.862671 
	C262.784088,226.310501 257.988251,215.729996 249.871231,206.381195 
	C242.601456,198.008224 233.236038,192.896118 223.407364,189.099823 
	C227.848572,189.017029 231.882217,189.215836 235.886429,188.957825 
	C250.342499,188.026352 262.546143,181.579361 271.892609,171.118317 
	C277.497192,164.845383 280.654083,156.392105 284.974945,148.955887 
	C285.428528,148.175262 286.314606,147.645935 287.000000,147.000000 
z"/>
<path fill="#1C92CB" opacity="1.000000" stroke="none" 
	d="
M287.000000,146.531342 
	C286.314606,147.645935 285.428528,148.175262 284.974945,148.955887 
	C280.654083,156.392105 277.497192,164.845383 271.892609,171.118317 
	C262.546143,181.579361 250.342499,188.026352 235.886429,188.957825 
	C231.882217,189.215836 227.848572,189.017029 222.998337,189.037476 
	C218.719589,188.373825 215.270950,187.700500 211.748672,186.671310 
	C200.018799,182.386078 190.453705,175.496323 183.416885,165.443573 
	C176.635925,155.756378 172.928665,145.054886 172.883698,132.964081 
	C172.844742,122.491669 175.571381,113.031158 180.467239,103.963348 
	C181.354843,102.319397 181.562012,100.308060 182.132812,98.389343 
	C182.182312,98.312347 182.465256,98.083244 182.741577,98.461357 
	C183.677567,97.934532 184.337250,97.029594 185.284592,95.977890 
	C186.047394,95.165207 186.522537,94.499298 187.435181,93.686340 
	C187.942841,92.847809 188.013000,92.156319 188.107971,91.417480 
	C188.132797,91.370117 188.292130,91.197800 188.292130,91.197800 
	C190.670044,89.814110 193.248444,88.686783 195.395416,87.007790 
	C221.969299,66.226288 262.380646,73.791443 278.904724,102.845123 
	C281.759369,107.864388 283.878204,113.302132 286.668457,118.273285 
	C287.000000,127.354225 287.000000,136.708450 287.000000,146.531342 
M183.060181,114.866638 
	C180.904709,123.284996 179.283920,131.530243 180.786346,140.510986 
	C183.111237,154.407913 190.053970,165.168427 201.166031,172.919785 
	C218.860001,185.262451 237.737549,185.604538 256.221130,174.814636 
	C270.367889,166.556412 278.499329,153.393494 279.811646,137.193298 
	C281.450165,116.965500 273.620850,100.499481 256.042664,89.695221 
	C244.165344,82.394920 231.179367,80.172058 217.443024,83.989502 
	C201.167084,88.512726 189.944031,98.679520 183.060181,114.866638 
z"/>
<path fill="#1CCB40" opacity="1.000000" stroke="none" 
	d="
M72.032822,191.171860 
	C68.778313,191.466904 65.515594,191.691376 62.270683,192.068893 
	C46.173931,193.941513 32.467304,188.536713 20.070938,178.636688 
	C11.111698,171.481659 6.698295,161.376892 1.349161,151.802795 
	C1.000000,141.312439 1.000000,130.624878 1.000001,119.468658 
	C2.302705,117.077271 3.911419,115.293884 4.860373,113.210068 
	C13.523494,94.186577 27.919607,82.610306 48.621208,78.982338 
	C67.001244,75.761238 82.490860,81.978905 97.045242,93.202591 
	C98.744171,94.175209 99.842026,95.324524 100.624046,96.802231 
	C100.897171,97.766418 101.486137,98.402199 102.021515,99.033859 
	C101.967934,99.029739 101.972412,98.922348 102.069778,99.261032 
	C102.776764,100.565880 103.350372,101.557045 104.001404,102.494438 
	C113.332840,115.930428 117.119614,130.742020 113.553345,146.770584 
	C109.091667,166.823517 96.995148,180.855865 77.642029,188.924896 
	C75.532425,189.726013 73.782623,190.448944 72.032822,191.171860 
M76.169800,181.916855 
	C77.336281,181.304733 78.495880,180.679047 79.670250,180.082458 
	C102.912041,168.275696 111.819405,145.023514 105.545151,121.880051 
	C98.760933,96.855492 75.522568,81.412422 48.490326,86.251968 
	C20.239109,91.309746 2.797028,117.411522 8.438101,145.375961 
	C14.673193,176.285141 45.955288,192.681351 76.169800,181.916855 
z"/>
<path fill="#FF6700" opacity="1.000000" stroke="none" 
	d="
M71.841385,191.476608 
	C73.782623,190.448944 75.532425,189.726013 78.063019,188.992096 
	C85.928741,188.651459 93.098381,187.468445 100.081764,188.161652 
	C117.030319,189.844116 130.255569,198.241974 140.107239,212.232605 
	C146.042999,220.662125 148.406113,230.306854 150.879547,240.391510 
	C150.892334,243.519592 150.866119,246.258575 150.509888,249.211838 
	C149.234589,253.692352 148.695084,258.099213 147.273605,262.200439 
	C141.227966,279.643372 129.778351,291.980225 112.244453,298.413452 
	C111.012474,298.865448 110.074631,300.119141 109.000008,301.000000 
	C98.645775,301.000000 88.291542,301.000000 77.468658,301.000000 
	C76.373550,300.322357 75.870514,299.282379 75.102371,299.020752 
	C60.518444,294.053497 49.255127,284.801697 42.257187,271.277740 
	C34.421902,256.135498 33.406326,240.056183 39.585899,223.929794 
	C45.083538,209.583008 55.112064,199.314514 68.879105,192.637741 
	C69.738930,192.220749 70.723450,192.060867 71.841385,191.476608 
M43.000217,247.324310 
	C43.812912,259.314453 48.103062,270.043304 56.336128,278.651154 
	C67.361252,290.178131 80.971397,295.269592 97.250565,294.129852 
	C123.618286,292.283813 143.241776,269.917053 142.866776,243.872208 
	C142.651337,228.908707 136.575287,216.429733 124.995575,206.264816 
	C109.229057,192.424622 82.933708,191.131104 66.053932,202.423050 
	C50.398487,212.895996 42.872459,227.632828 43.000217,247.324310 
z"/>
<path fill="#FFCE67" opacity="1.000000" stroke="none" 
	d="
M100.939888,96.473839 
	C99.842026,95.324524 98.744171,94.175209 97.494415,92.978218 
	C88.990746,82.142769 84.816139,69.933998 85.010437,56.285542 
	C85.192139,43.521828 89.559708,32.239822 97.312950,22.188416 
	C104.466187,12.914872 113.734268,6.684918 124.773506,2.953816 
	C125.477951,2.715723 126.036201,2.045071 126.331230,1.287823 
	C136.354233,1.000000 146.708450,1.000000 157.531342,0.999997 
	C158.770493,1.703532 159.422089,2.717239 160.328995,3.064833 
	C178.709000,10.109521 191.929565,22.322071 197.078186,41.647182 
	C201.677307,58.909752 199.764954,75.517456 188.653168,90.824875 
	C188.292130,91.197800 188.132797,91.370117 187.859009,91.661346 
	C187.389374,92.579506 187.193527,93.206451 186.997681,93.833397 
	C186.522537,94.499298 186.047394,95.165207 184.951752,96.004478 
	C183.709259,96.812973 183.087250,97.448105 182.465240,98.083237 
	C182.465256,98.083244 182.182312,98.312347 181.866867,98.640366 
	C179.774002,100.407829 178.062134,101.938309 176.209015,103.272606 
	C158.411102,116.087669 139.295944,118.383156 119.262314,109.513527 
	C113.136696,106.801498 107.715958,102.497368 101.972412,98.922348 
	C101.972412,98.922348 101.967934,99.029739 101.985535,98.665344 
	C101.648712,97.691910 101.294296,97.082878 100.939888,96.473839 
M181.587677,26.079584 
	C179.703827,24.193628 177.879684,22.243299 175.926712,20.431873 
	C160.004639,5.663814 135.977478,3.342325 118.550652,13.469712 
	C99.584465,24.491686 90.050774,41.513054 92.974037,64.244110 
	C94.807518,78.501137 101.751518,89.769424 113.278694,97.959198 
	C127.879021,108.332359 144.108368,110.215385 160.665680,103.854706 
	C178.916580,96.843422 189.215622,82.668503 191.846573,63.544903 
	C193.686157,50.173515 190.164429,37.671661 181.587677,26.079584 
z"/>
<path fill="#AAA49A" opacity="1.000000" stroke="none" 
	d="
M150.839920,248.997574 
	C150.866119,246.258575 150.892334,243.519592 150.949829,239.951019 
	C150.586426,229.169556 154.646713,220.472275 160.022415,212.756073 
	C172.458954,194.904907 190.172928,186.784119 211.822296,187.027161 
	C215.270950,187.700500 218.719589,188.373825 222.577271,189.109512 
	C233.236038,192.896118 242.601456,198.008224 249.871231,206.381195 
	C257.988251,215.729996 262.784088,226.310501 264.178467,238.862671 
	C265.800476,253.463882 262.151337,266.380829 253.810043,277.911652 
	C246.335342,288.244476 236.507797,295.863525 223.804993,299.127533 
	C223.249771,299.270172 222.834671,299.958191 222.677155,300.696075 
	C212.979111,301.000000 202.958206,301.000000 192.791626,300.695099 
	C192.166351,299.956665 191.750412,299.262024 191.197968,299.127350 
	C170.227188,294.015686 150.977768,271.741821 150.839920,248.997574 
M230.949127,200.441437 
	C212.211975,191.671875 194.264481,192.516418 177.300812,204.909119 
	C158.705765,218.493652 153.452179,242.312866 160.959488,262.487885 
	C169.309753,284.928253 192.025528,298.221558 216.409790,293.807953 
	C241.603119,289.247864 259.122375,267.138885 257.036865,240.874496 
	C255.617767,223.002716 247.056671,209.756790 230.949127,200.441437 
z"/>
<path fill="#000000" opacity="1.000000" stroke="none" 
	d="
M150.509888,249.211838 
	C150.977768,271.741821 170.227188,294.015686 191.197968,299.127350 
	C191.750412,299.262024 192.166351,299.956665 192.322968,300.695099 
	C164.645767,301.000000 137.291550,301.000000 109.468666,301.000000 
	C110.074631,300.119141 111.012474,298.865448 112.244453,298.413452 
	C129.778351,291.980225 141.227966,279.643372 147.273605,262.200439 
	C148.695084,258.099213 149.234589,253.692352 150.509888,249.211838 
z"/>
<path fill="#000000" opacity="1.000000" stroke="none" 
	d="
M211.748672,186.671295 
	C190.172928,186.784119 172.458954,194.904907 160.022415,212.756073 
	C154.646713,220.472275 150.586426,229.169556 150.910843,239.561935 
	C148.406113,230.306854 146.042999,220.662125 140.107239,212.232605 
	C130.255569,198.241974 117.030319,189.844116 100.081764,188.161652 
	C93.098381,187.468445 85.928741,188.651459 78.422829,188.913910 
	C96.995148,180.855865 109.091667,166.823517 113.553345,146.770584 
	C117.119614,130.742020 113.332840,115.930428 104.001404,102.494438 
	C103.350372,101.557045 102.776764,100.565880 102.069778,99.261032 
	C107.715958,102.497368 113.136696,106.801498 119.262314,109.513527 
	C139.295944,118.383156 158.411102,116.087669 176.209015,103.272606 
	C178.062134,101.938309 179.774002,100.407829 181.817368,98.717354 
	C181.562012,100.308060 181.354843,102.319397 180.467239,103.963348 
	C175.571381,113.031158 172.844742,122.491669 172.883698,132.964081 
	C172.928665,145.054886 176.635925,155.756378 183.416885,165.443573 
	C190.453705,175.496323 200.018799,182.386078 211.748672,186.671295 
z"/>
<path fill="#000000" opacity="1.000000" stroke="none" 
	d="
M183.213165,114.499359 
	C189.944031,98.679520 201.167084,88.512726 217.443024,83.989502 
	C231.179367,80.172058 244.165344,82.394920 256.042664,89.695221 
	C273.620850,100.499481 281.450165,116.965500 279.811646,137.193298 
	C278.499329,153.393494 270.367889,166.556412 256.221130,174.814636 
	C237.737549,185.604538 218.860001,185.262451 201.166031,172.919785 
	C190.053970,165.168427 183.111237,154.407913 180.786346,140.510986 
	C179.283920,131.530243 180.904709,123.284996 183.213165,114.499359 
M218.519730,106.019615 
	C217.299866,107.558586 216.135620,109.145706 214.851364,110.628937 
	C204.608948,122.458153 197.778900,135.511490 201.085052,151.764877 
	C202.465759,158.552612 205.311783,164.722198 211.264481,169.064438 
	C223.414810,177.927521 235.797913,176.843048 248.121353,169.872894 
	C257.167847,164.756210 261.354523,152.763138 259.291229,142.503952 
	C257.311584,132.660599 250.959351,125.978775 244.601959,119.079384 
	C240.282166,114.391296 238.087891,109.074310 239.658127,102.479607 
	C240.665787,98.247589 241.066772,93.871124 241.814194,89.082253 
	C239.774139,90.253532 237.862152,91.108604 236.227386,92.333649 
	C230.450806,96.662354 224.769150,101.117714 218.519730,106.019615 
z"/>
<path fill="#000000" opacity="1.000000" stroke="none" 
	d="
M182.741562,98.461349 
	C183.087250,97.448105 183.709259,96.812973 184.664093,96.151245 
	C184.337250,97.029594 183.677567,97.934532 182.741562,98.461349 
z"/>
<path fill="#000000" opacity="1.000000" stroke="none" 
	d="
M187.435181,93.686340 
	C187.193527,93.206451 187.389374,92.579506 187.834198,91.708702 
	C188.013000,92.156319 187.942841,92.847809 187.435181,93.686340 
z"/>
<path fill="#000000" opacity="1.000000" stroke="none" 
	d="
M75.776993,181.964081 
	C45.955288,192.681351 14.673193,176.285141 8.438101,145.375961 
	C2.797028,117.411522 20.239109,91.309746 48.490326,86.251968 
	C75.522568,81.412422 98.760933,96.855492 105.545151,121.880051 
	C111.819405,145.023514 102.912041,168.275696 79.670250,180.082458 
	C78.495880,180.679047 77.336281,181.304733 75.776993,181.964081 
M37.964470,151.536026 
	C39.355736,151.036453 40.747887,150.539322 42.138088,150.036789 
	C45.013004,148.997604 48.542095,148.194550 49.810341,151.409698 
	C50.781334,153.871277 50.680321,158.221207 49.104404,159.910477 
	C46.022507,163.214035 41.576839,165.245346 37.681656,167.812622 
	C42.671265,167.699738 48.382927,167.839706 47.117496,177.288834 
	C56.342487,166.745605 65.011551,173.436050 73.473106,176.081451 
	C73.322243,173.041550 73.205551,170.690292 73.087151,168.304657 
	C76.019394,168.042618 78.364761,167.833008 80.710129,167.623413 
	C78.719872,165.843445 76.633522,165.128418 74.651093,164.193115 
	C69.828484,161.917816 66.334259,156.441254 67.443489,153.077866 
	C69.110909,148.021912 73.449333,146.286545 80.322723,147.968262 
	C81.744926,148.316254 83.111465,148.925537 84.545151,149.186554 
	C89.286140,150.049774 93.427544,149.086853 97.022949,145.547668 
	C100.420036,142.203705 98.781883,138.958267 97.551765,135.522629 
	C97.105827,134.277161 96.511360,132.779755 96.820122,131.619675 
	C98.568718,125.049866 97.514389,122.028404 92.139915,118.303169 
	C91.683205,115.854790 91.922386,113.392670 90.820259,111.968636 
	C88.101120,108.455246 84.972183,105.176682 81.588890,102.295921 
	C80.002647,100.945290 77.483459,100.261261 75.326134,100.102333 
	C71.203613,99.798615 67.093681,100.598686 63.610382,97.053200 
	C62.225498,95.643593 59.446171,95.337677 57.234455,95.054642 
	C49.335846,94.043839 44.854294,98.941132 41.305359,104.920387 
	C30.298100,101.127884 24.473763,105.195557 23.900829,116.552536 
	C23.826557,118.024796 22.758030,119.768150 21.622299,120.811409 
	C15.942395,126.028816 15.448270,128.953552 19.534065,135.684753 
	C14.143828,142.139206 15.275859,148.917847 22.098083,151.987061 
	C27.220020,154.291367 32.203743,153.739853 37.964470,151.536026 
z"/>
<path fill="#000000" opacity="1.000000" stroke="none" 
	d="
M100.624046,96.802231 
	C101.294296,97.082878 101.648712,97.691910 102.039116,98.669464 
	C101.486137,98.402199 100.897171,97.766418 100.624046,96.802231 
z"/>
<path fill="#000000" opacity="1.000000" stroke="none" 
	d="
M43.000233,246.853745 
	C42.872459,227.632828 50.398487,212.895996 66.053932,202.423050 
	C82.933708,191.131104 109.229057,192.424622 124.995575,206.264816 
	C136.575287,216.429733 142.651337,228.908707 142.866776,243.872208 
	C143.241776,269.917053 123.618286,292.283813 97.250565,294.129852 
	C80.971397,295.269592 67.361252,290.178131 56.336128,278.651154 
	C48.103062,270.043304 43.812912,259.314453 43.000233,246.853745 
M98.129364,203.063690 
	C90.217598,202.187103 82.482460,202.488342 75.234375,205.816177 
	C80.283684,207.069885 85.307045,207.560425 90.126961,208.825882 
	C91.663452,209.229279 92.659691,211.690430 93.903130,213.210007 
	C92.036873,213.498566 90.178551,213.888992 88.301208,214.035355 
	C87.268822,214.115829 86.204407,213.785492 85.045418,213.625320 
	C89.634743,220.503662 92.436562,221.251053 102.985588,218.527664 
	C107.819160,217.279816 111.908562,220.157257 111.636711,223.208481 
	C108.413261,222.648102 105.124359,221.832916 101.790237,221.549393 
	C95.596901,221.022766 89.377197,220.806305 83.266327,220.466171 
	C83.990845,221.922867 84.898613,223.994644 86.015663,225.946655 
	C89.094391,231.326630 93.838173,233.491135 98.333557,232.054886 
	C102.926414,230.587509 103.473419,227.153351 103.004395,222.934738 
	C104.318916,224.540146 105.335693,225.981964 106.096970,227.547989 
	C108.531822,232.556732 107.204201,236.610504 102.044746,238.301819 
	C99.301811,239.200989 96.042496,239.504974 93.215652,238.987793 
	C84.045113,237.310043 75.458443,237.706543 67.263191,242.874435 
	C60.356358,247.229889 56.739307,256.567017 58.798958,264.521759 
	C61.447350,274.750305 68.915649,280.380402 77.517036,284.624878 
	C84.624184,288.131989 92.740776,288.437195 100.114197,286.082245 
	C106.662163,283.990936 112.557503,279.856293 118.740906,276.623566 
	C118.797585,276.247467 118.854263,275.871368 118.910942,275.495270 
	C113.678467,275.236176 108.445992,274.977081 102.648247,274.690002 
	C105.374908,270.267761 109.343903,271.713562 112.169418,272.282257 
	C119.675552,273.792969 125.183990,271.865906 129.361252,265.365753 
	C130.994293,262.824646 133.468964,260.824402 135.560303,258.577820 
	C135.509796,258.171814 135.459305,257.765778 135.408798,257.359741 
	C129.818176,258.984100 124.227547,260.608459 118.636925,262.232819 
	C118.885948,260.905243 119.445503,260.363220 120.103561,259.999359 
	C131.330475,253.791611 136.640747,243.094574 132.782028,230.907745 
	C130.635483,224.128418 125.898262,218.169373 122.328621,211.840637 
	C121.983772,211.946793 121.638931,212.052948 121.294083,212.159088 
	C121.133278,214.195755 120.972473,216.232422 120.809563,218.295685 
	C114.087151,209.343796 108.735779,205.710052 98.129364,203.063690 
M62.357838,221.901413 
	C64.907425,220.134232 67.457024,218.367050 70.546501,216.225662 
	C69.824043,219.050034 69.362251,220.855362 68.898491,222.668411 
	C72.321205,221.297775 75.308228,220.369583 78.018929,218.923431 
	C79.876541,217.932419 82.954514,215.618210 82.700478,214.941452 
	C81.862465,212.708908 80.047081,209.683762 78.087646,209.236130 
	C70.378792,207.475082 63.004978,213.485687 62.357838,221.901413 
z"/>
<path fill="#000000" opacity="1.000000" stroke="none" 
	d="
M181.772339,26.395248 
	C190.164429,37.671661 193.686157,50.173515 191.846573,63.544903 
	C189.215622,82.668503 178.916580,96.843422 160.665680,103.854706 
	C144.108368,110.215385 127.879021,108.332359 113.278694,97.959198 
	C101.751518,89.769424 94.807518,78.501137 92.974037,64.244110 
	C90.050774,41.513054 99.584465,24.491686 118.550652,13.469712 
	C135.977478,3.342325 160.004639,5.663814 175.926712,20.431873 
	C177.879684,22.243299 179.703827,24.193628 181.772339,26.395248 
M181.007278,51.518154 
	C177.951248,49.526302 174.895233,47.534451 171.663239,45.427902 
	C169.209656,49.557281 167.101517,53.144890 162.191696,49.791557 
	C164.337372,45.769257 170.241791,44.186207 169.012802,38.330208 
	C168.263306,34.758865 169.941116,32.787205 173.364365,31.907387 
	C174.659775,31.574451 175.838547,30.787630 177.798370,29.865046 
	C169.902100,25.260487 162.691406,24.513567 155.399750,28.514889 
	C153.719421,31.542608 157.719559,36.836147 150.998886,37.910660 
	C150.998886,35.811947 151.342255,33.911194 150.918579,32.200386 
	C150.279587,29.620024 149.799942,25.912151 148.014877,24.927671 
	C144.168793,22.806520 145.171753,20.416798 146.129105,17.658886 
	C146.624969,16.230335 147.421692,14.906218 148.208115,13.274250 
	C140.046280,14.064814 133.078415,20.365337 131.097900,28.253731 
	C136.787903,32.170193 137.207031,33.404377 133.747757,37.249329 
	C130.097336,32.605423 126.342949,27.855581 119.450294,30.565145 
	C117.654114,27.862970 115.937828,25.280973 114.221535,22.698977 
	C113.572998,22.801998 112.924454,22.905018 112.275909,23.008038 
	C111.860794,28.255413 111.054512,33.511345 111.169029,38.747135 
	C111.244507,42.197960 113.070938,44.848568 117.544571,44.060390 
	C121.202209,43.415977 122.683441,45.133347 121.923637,47.789127 
	C117.470566,49.130283 112.500031,49.136387 110.480522,51.580677 
	C107.355682,55.362766 105.043335,55.051888 101.569252,53.240120 
	C100.571373,52.719719 99.300575,52.722637 98.063362,52.466675 
	C99.710808,59.685886 103.312790,64.593788 109.421173,66.913933 
	C111.069603,67.540047 113.441902,66.656837 115.360092,66.068916 
	C117.431625,65.433983 119.360413,64.333321 121.351463,63.435810 
	C121.698906,63.975197 122.046349,64.514587 122.393791,65.053970 
	C120.822197,66.642860 118.929077,68.029404 117.766991,69.875999 
	C116.538239,71.828537 114.752327,74.746674 115.412758,76.315842 
	C117.135880,80.409927 114.040894,81.308983 112.078514,82.914322 
	C110.959106,83.830055 109.317497,84.107437 107.744484,84.739128 
	C113.156647,89.666245 123.985245,90.981216 128.740219,86.493309 
	C129.542236,82.479118 130.108170,79.646553 130.674103,76.813988 
	C131.445999,76.833710 132.217896,76.853432 132.989792,76.873154 
	C133.327271,78.579460 134.158936,80.361755 133.910446,81.977974 
	C133.135590,87.017860 135.632675,90.043854 139.587097,92.461678 
	C138.781021,95.568855 137.971909,98.687706 137.104126,102.032684 
	C143.953278,100.392052 148.953110,96.960167 151.850693,91.120003 
	C152.607239,89.595161 152.498734,85.996201 151.719955,85.631859 
	C147.802963,83.799446 149.110748,80.980392 149.263550,76.958542 
	C151.279785,78.887520 152.360001,80.365204 153.809402,81.208038 
	C156.246323,82.625122 159.256592,85.029388 161.413361,84.504150 
	C164.862488,83.664177 165.859116,84.972038 167.070038,87.343323 
	C167.909790,88.987778 168.912231,90.549149 169.841995,92.147644 
	C170.297562,92.142685 170.753143,92.137718 171.208725,92.132751 
	C172.138077,87.975609 173.760757,83.832146 173.843124,79.658295 
	C173.986053,72.414726 172.060043,70.868744 165.171219,69.870918 
	C163.874817,69.683144 162.772171,68.157799 161.736359,67.368698 
	C166.485931,65.864044 171.467133,65.750130 173.745850,63.210960 
	C176.931549,59.661140 179.414490,59.952023 182.896103,61.363056 
	C184.143143,61.868458 185.473190,62.169041 187.626450,62.825710 
	C185.314682,58.724201 183.429184,55.378979 181.007278,51.518154 
z"/>
<path fill="#000000" opacity="1.000000" stroke="none" 
	d="
M231.244415,200.678162 
	C247.056671,209.756790 255.617767,223.002716 257.036865,240.874496 
	C259.122375,267.138885 241.603119,289.247864 216.409790,293.807953 
	C192.025528,298.221558 169.309753,284.928253 160.959488,262.487885 
	C153.452179,242.312866 158.705765,218.493652 177.300812,204.909119 
	C194.264481,192.516418 212.211975,191.671875 231.244415,200.678162 
M233.297134,212.306824 
	C233.172058,212.178513 233.046967,212.050217 233.000946,211.191330 
	C232.244064,210.447067 231.609772,209.474213 230.711975,208.992706 
	C216.526428,201.384521 202.199860,201.922531 187.480972,207.696869 
	C182.848434,209.514267 182.225342,212.603210 183.223465,216.137085 
	C183.755753,218.021744 186.477127,219.288132 188.406174,221.008057 
	C185.241867,220.834137 182.283508,220.671524 179.258652,220.505280 
	C179.039276,218.747360 178.810562,216.914551 178.500443,214.429459 
	C171.907425,222.058456 168.068436,230.172379 166.102783,239.086624 
	C163.983780,248.696350 167.486282,253.191483 176.831009,256.168610 
	C187.186783,259.467804 188.374924,257.908386 188.008698,270.357788 
	C187.959778,272.020966 187.966934,273.687744 188.008972,275.351349 
	C188.164993,281.523193 190.553223,284.270142 197.063873,285.557037 
	C197.063873,281.914642 197.063873,278.324249 197.063873,273.876526 
	C200.801147,285.771332 200.801147,285.771332 206.998230,284.145050 
	C206.998230,282.587128 206.998230,280.943024 206.998230,279.298889 
	C206.998230,277.825623 206.998230,276.352356 206.998230,274.879089 
	C207.344452,274.890839 207.690689,274.902557 208.036911,274.914307 
	C208.036911,277.502716 208.036911,280.091156 208.036911,282.632141 
	C215.261887,283.299530 215.261887,283.299530 217.018265,275.763062 
	C217.018265,278.788086 217.018265,281.813110 217.018265,285.089905 
	C221.492279,284.966919 224.831955,283.455902 225.850296,279.556702 
	C226.789078,275.962097 226.848969,272.089447 226.936752,268.330902 
	C227.139359,259.655334 227.678894,259.027069 236.417923,256.953766 
	C242.115982,255.601898 247.100204,253.377060 248.788513,246.781357 
	C251.383316,236.644333 244.617599,218.175400 235.808609,212.455673 
	C235.340652,212.151825 234.375290,212.614029 233.297134,212.306824 
z"/>
<path fill="#1C91C9" opacity="1.000000" stroke="none" 
	d="
M218.785614,105.772331 
	C224.769150,101.117714 230.450806,96.662354 236.227386,92.333649 
	C237.862152,91.108604 239.774139,90.253532 241.814194,89.082253 
	C241.066772,93.871124 240.665787,98.247589 239.658127,102.479607 
	C238.087891,109.074310 240.282166,114.391296 244.601959,119.079384 
	C250.959351,125.978775 257.311584,132.660599 259.291229,142.503952 
	C261.354523,152.763138 257.167847,164.756210 248.121353,169.872894 
	C235.797913,176.843048 223.414810,177.927521 211.264481,169.064438 
	C205.311783,164.722198 202.465759,158.552612 201.085052,151.764877 
	C197.778900,135.511490 204.608948,122.458153 214.851364,110.628937 
	C216.135620,109.145706 217.299866,107.558586 218.785614,105.772331 
M243.880371,141.465240 
	C243.899826,143.955185 243.323883,146.663345 244.130722,148.864700 
	C244.754883,150.567688 247.017731,152.529648 248.725159,152.706589 
	C250.114197,152.850555 252.247910,150.806534 253.186111,149.220840 
	C254.922623,146.285873 251.156403,138.436020 247.868103,138.132980 
	C246.662613,138.021896 245.286926,139.757599 243.880371,141.465240 
z"/>
<path fill="#1CCA40" opacity="1.000000" stroke="none" 
	d="
M37.602707,151.722046 
	C32.203743,153.739853 27.220020,154.291367 22.098083,151.987061 
	C15.275859,148.917847 14.143828,142.139206 19.534065,135.684753 
	C15.448270,128.953552 15.942395,126.028816 21.622299,120.811409 
	C22.758030,119.768150 23.826557,118.024796 23.900829,116.552536 
	C24.473763,105.195557 30.298100,101.127884 41.305359,104.920387 
	C44.854294,98.941132 49.335846,94.043839 57.234455,95.054642 
	C59.446171,95.337677 62.225498,95.643593 63.610382,97.053200 
	C67.093681,100.598686 71.203613,99.798615 75.326134,100.102333 
	C77.483459,100.261261 80.002647,100.945290 81.588890,102.295921 
	C84.972183,105.176682 88.101120,108.455246 90.820259,111.968636 
	C91.922386,113.392670 91.683205,115.854790 92.139915,118.303169 
	C97.514389,122.028404 98.568718,125.049866 96.820122,131.619675 
	C96.511360,132.779755 97.105827,134.277161 97.551765,135.522629 
	C98.781883,138.958267 100.420036,142.203705 97.022949,145.547668 
	C93.427544,149.086853 89.286140,150.049774 84.545151,149.186554 
	C83.111465,148.925537 81.744926,148.316254 80.322723,147.968262 
	C73.449333,146.286545 69.110909,148.021912 67.443489,153.077866 
	C66.334259,156.441254 69.828484,161.917816 74.651093,164.193115 
	C76.633522,165.128418 78.719872,165.843445 80.710129,167.623413 
	C78.364761,167.833008 76.019394,168.042618 73.087151,168.304657 
	C73.205551,170.690292 73.322243,173.041550 73.473106,176.081451 
	C65.011551,173.436050 56.342487,166.745605 47.117496,177.288834 
	C48.382927,167.839706 42.671265,167.699738 37.681656,167.812622 
	C41.576839,165.245346 46.022507,163.214035 49.104404,159.910477 
	C50.680321,158.221207 50.781334,153.871277 49.810341,151.409698 
	C48.542095,148.194550 45.013004,148.997604 42.138088,150.036789 
	C40.747887,150.539322 39.355736,151.036453 37.602707,151.722046 
z"/>
<path fill="#FF6600" opacity="1.000000" stroke="none" 
	d="
M98.516769,203.235764 
	C108.735779,205.710052 114.087151,209.343796 120.809563,218.295685 
	C120.972473,216.232422 121.133278,214.195755 121.294083,212.159088 
	C121.638931,212.052948 121.983772,211.946793 122.328621,211.840637 
	C125.898262,218.169373 130.635483,224.128418 132.782028,230.907745 
	C136.640747,243.094574 131.330475,253.791611 120.103561,259.999359 
	C119.445503,260.363220 118.885948,260.905243 118.636925,262.232819 
	C124.227547,260.608459 129.818176,258.984100 135.408798,257.359741 
	C135.459305,257.765778 135.509796,258.171814 135.560303,258.577820 
	C133.468964,260.824402 130.994293,262.824646 129.361252,265.365753 
	C125.183990,271.865906 119.675552,273.792969 112.169418,272.282257 
	C109.343903,271.713562 105.374908,270.267761 102.648247,274.690002 
	C108.445992,274.977081 113.678467,275.236176 118.910942,275.495270 
	C118.854263,275.871368 118.797585,276.247467 118.740906,276.623566 
	C112.557503,279.856293 106.662163,283.990936 100.114197,286.082245 
	C92.740776,288.437195 84.624184,288.131989 77.517036,284.624878 
	C68.915649,280.380402 61.447350,274.750305 58.798958,264.521759 
	C56.739307,256.567017 60.356358,247.229889 67.263191,242.874435 
	C75.458443,237.706543 84.045113,237.310043 93.215652,238.987793 
	C96.042496,239.504974 99.301811,239.200989 102.044746,238.301819 
	C107.204201,236.610504 108.531822,232.556732 106.096970,227.547989 
	C105.335693,225.981964 104.318916,224.540146 103.004395,222.934738 
	C103.473419,227.153351 102.926414,230.587509 98.333557,232.054886 
	C93.838173,233.491135 89.094391,231.326630 86.015663,225.946655 
	C84.898613,223.994644 83.990845,221.922867 83.266327,220.466171 
	C89.377197,220.806305 95.596901,221.022766 101.790237,221.549393 
	C105.124359,221.832916 108.413261,222.648102 111.636711,223.208481 
	C111.908562,220.157257 107.819160,217.279816 102.985588,218.527664 
	C92.436562,221.251053 89.634743,220.503662 85.045418,213.625320 
	C86.204407,213.785492 87.268822,214.115829 88.301208,214.035355 
	C90.178551,213.888992 92.036873,213.498566 93.903137,213.210007 
	C92.659691,211.690430 91.663452,209.229279 90.126961,208.825882 
	C85.307045,207.560425 80.283684,207.069885 75.234375,205.816177 
	C82.482460,202.488342 90.217598,202.187103 98.516769,203.235764 
M110.251244,237.255508 
	C110.747589,237.741959 111.685005,238.246399 111.666031,238.711853 
	C111.569740,241.073715 111.225365,243.425461 110.967896,245.780746 
	C115.528259,240.745758 114.574226,236.776733 109.155090,234.465317 
	C109.071892,235.320755 108.993706,236.124695 108.330818,237.214310 
	C108.283470,237.995911 108.236122,238.777512 108.137062,240.412750 
	C108.941902,238.982590 109.300529,238.345322 110.251244,237.255508 
z"/>
<path fill="#FF6700" opacity="1.000000" stroke="none" 
	d="
M61.992867,221.889496 
	C63.004978,213.485687 70.378792,207.475082 78.087646,209.236130 
	C80.047081,209.683762 81.862465,212.708908 82.700478,214.941452 
	C82.954514,215.618210 79.876541,217.932419 78.018929,218.923431 
	C75.308228,220.369583 72.321205,221.297775 68.898491,222.668411 
	C69.362251,220.855362 69.824043,219.050034 70.546501,216.225662 
	C67.457024,218.367050 64.907425,220.134232 61.992867,221.889496 
z"/>
<path fill="#FFCD67" opacity="1.000000" stroke="none" 
	d="
M181.275482,51.775955 
	C183.429184,55.378979 185.314682,58.724201 187.626450,62.825710 
	C185.473190,62.169041 184.143143,61.868458 182.896103,61.363056 
	C179.414490,59.952023 176.931549,59.661140 173.745850,63.210960 
	C171.467133,65.750130 166.485931,65.864044 161.736359,67.368698 
	C162.772171,68.157799 163.874817,69.683144 165.171219,69.870918 
	C172.060043,70.868744 173.986053,72.414726 173.843124,79.658295 
	C173.760757,83.832146 172.138077,87.975609 171.208725,92.132751 
	C170.753143,92.137718 170.297562,92.142685 169.841995,92.147644 
	C168.912231,90.549149 167.909790,88.987778 167.070038,87.343323 
	C165.859116,84.972038 164.862488,83.664177 161.413361,84.504150 
	C159.256592,85.029388 156.246323,82.625122 153.809402,81.208038 
	C152.360001,80.365204 151.279785,78.887520 149.263550,76.958542 
	C149.110748,80.980392 147.802963,83.799446 151.719955,85.631859 
	C152.498734,85.996201 152.607239,89.595161 151.850693,91.120003 
	C148.953110,96.960167 143.953278,100.392052 137.104126,102.032684 
	C137.971909,98.687706 138.781021,95.568855 139.587097,92.461678 
	C135.632675,90.043854 133.135590,87.017860 133.910446,81.977974 
	C134.158936,80.361755 133.327271,78.579460 132.989792,76.873154 
	C132.217896,76.853432 131.445999,76.833710 130.674103,76.813988 
	C130.108170,79.646553 129.542236,82.479118 128.740219,86.493309 
	C123.985245,90.981216 113.156647,89.666245 107.744484,84.739128 
	C109.317497,84.107437 110.959106,83.830055 112.078514,82.914322 
	C114.040894,81.308983 117.135880,80.409927 115.412758,76.315842 
	C114.752327,74.746674 116.538239,71.828537 117.766991,69.875999 
	C118.929077,68.029404 120.822197,66.642860 122.393791,65.053970 
	C122.046349,64.514587 121.698906,63.975197 121.351463,63.435810 
	C119.360413,64.333321 117.431625,65.433983 115.360092,66.068916 
	C113.441902,66.656837 111.069603,67.540047 109.421173,66.913933 
	C103.312790,64.593788 99.710808,59.685886 98.063362,52.466675 
	C99.300575,52.722637 100.571373,52.719719 101.569252,53.240120 
	C105.043335,55.051888 107.355682,55.362766 110.480522,51.580677 
	C112.500031,49.136387 117.470566,49.130283 121.923637,47.789127 
	C122.683441,45.133347 121.202209,43.415977 117.544571,44.060390 
	C113.070938,44.848568 111.244507,42.197960 111.169029,38.747135 
	C111.054512,33.511345 111.860794,28.255413 112.275909,23.008038 
	C112.924454,22.905018 113.572998,22.801998 114.221535,22.698977 
	C115.937828,25.280973 117.654114,27.862970 119.450294,30.565145 
	C126.342949,27.855581 130.097336,32.605423 133.747757,37.249329 
	C137.207031,33.404377 136.787903,32.170193 131.097900,28.253731 
	C133.078415,20.365337 140.046280,14.064814 148.208115,13.274250 
	C147.421692,14.906218 146.624969,16.230335 146.129105,17.658886 
	C145.171753,20.416798 144.168793,22.806520 148.014877,24.927671 
	C149.799942,25.912151 150.279587,29.620024 150.918579,32.200386 
	C151.342255,33.911194 150.998886,35.811947 150.998886,37.910660 
	C157.719559,36.836147 153.719421,31.542608 155.399750,28.514889 
	C162.691406,24.513567 169.902100,25.260487 177.798370,29.865046 
	C175.838547,30.787630 174.659775,31.574451 173.364365,31.907387 
	C169.941116,32.787205 168.263306,34.758865 169.012802,38.330208 
	C170.241791,44.186207 164.337372,45.769257 162.191696,49.791557 
	C167.101517,53.144890 169.209656,49.557281 171.663239,45.427902 
	C174.895233,47.534451 177.951248,49.526302 181.275482,51.775955 
M127.998901,67.745537 
	C129.693604,68.834091 131.388306,69.922646 133.028595,70.968330 
	C133.028595,70.968330 132.974579,70.924965 132.293793,71.511345 
	C137.100571,76.621872 149.655991,76.352074 154.714386,69.862579 
	C154.714386,69.862579 155.015610,69.574295 155.513168,68.998268 
	C160.368103,63.728886 161.503677,54.741642 157.900406,48.949368 
	C157.529572,48.353245 156.273529,48.307796 155.071075,47.603226 
	C154.044952,46.594444 153.018829,45.585667 152.902985,44.117752 
	C148.249237,38.867149 139.732147,38.395279 132.967697,42.972599 
	C132.967697,42.972599 133.019043,42.927532 132.281250,42.998569 
	C130.850418,45.026817 129.419601,47.055065 128.032562,49.027889 
	C128.032562,49.027889 128.076950,48.972954 127.439796,48.285767 
	C123.758766,54.671001 123.475807,60.953182 127.972786,67.032372 
	C127.972786,67.032372 127.928001,66.981186 127.998901,67.745537 
z"/>
<path fill="#A9A49A" opacity="1.000000" stroke="none" 
	d="
M233.641495,212.719604 
	C234.375290,212.614029 235.340652,212.151825 235.808609,212.455673 
	C244.617599,218.175400 251.383316,236.644333 248.788513,246.781357 
	C247.100204,253.377060 242.115982,255.601898 236.417923,256.953766 
	C227.678894,259.027069 227.139359,259.655334 226.936752,268.330902 
	C226.848969,272.089447 226.789078,275.962097 225.850296,279.556702 
	C224.831955,283.455902 221.492279,284.966919 217.018265,285.089905 
	C217.018265,281.813110 217.018265,278.788086 217.018265,275.763062 
	C215.261887,283.299530 215.261887,283.299530 208.036911,282.632141 
	C208.036911,280.091156 208.036911,277.502716 208.036911,274.914307 
	C207.690689,274.902557 207.344452,274.890839 206.998230,274.879089 
	C206.998230,276.352356 206.998230,277.825623 206.998230,279.298889 
	C206.998230,280.943024 206.998230,282.587128 206.998230,284.145050 
	C200.801147,285.771332 200.801147,285.771332 197.063873,273.876526 
	C197.063873,278.324249 197.063873,281.914642 197.063873,285.557037 
	C190.553223,284.270142 188.164993,281.523193 188.008972,275.351349 
	C187.966934,273.687744 187.959778,272.020966 188.008698,270.357788 
	C188.374924,257.908386 187.186783,259.467804 176.831009,256.168610 
	C167.486282,253.191483 163.983780,248.696350 166.102783,239.086624 
	C168.068436,230.172379 171.907425,222.058456 178.500443,214.429459 
	C178.810562,216.914551 179.039276,218.747360 179.258652,220.505280 
	C182.283508,220.671524 185.241867,220.834137 188.406174,221.008057 
	C186.477127,219.288132 183.755753,218.021744 183.223465,216.137085 
	C182.225342,212.603210 182.848434,209.514267 187.480972,207.696869 
	C202.199860,201.922531 216.526428,201.384521 230.711975,208.992706 
	C231.609772,209.474213 232.244064,210.447067 232.647659,211.593460 
	C231.628860,212.440964 230.963364,212.886337 230.079697,213.520813 
	C229.703934,214.048599 229.546326,214.387299 229.388733,214.726013 
	C229.949631,214.510544 230.510529,214.295074 231.378693,214.040710 
	C232.337814,213.574402 232.989655,213.147003 233.641495,212.719604 
M225.602402,249.017380 
	C228.346039,248.713196 231.207581,248.786972 233.794327,247.979919 
	C235.709000,247.382568 238.760147,245.551895 238.694275,244.423019 
	C238.517136,241.387878 237.736160,237.657562 235.745377,235.618347 
	C232.155350,231.941010 225.418060,232.141068 220.694427,235.133316 
	C216.425339,237.837646 215.489655,241.954056 216.308594,247.339676 
	C219.065689,247.887375 221.878265,248.446091 225.602402,249.017380 
M188.436157,248.016251 
	C191.980637,247.593201 195.525116,247.170166 199.018387,246.753235 
	C198.494904,243.961121 198.431686,242.482330 197.932022,241.169693 
	C196.340057,236.987656 193.658569,233.625885 188.992813,233.087769 
	C184.270172,232.543091 179.555984,232.541245 176.713318,237.754166 
	C173.285263,244.040527 175.074387,247.730927 182.023941,247.990814 
	C183.843384,248.058853 185.666992,248.015823 188.436157,248.016251 
M205.340897,259.807556 
	C204.812927,257.106384 204.284943,254.405228 203.756973,251.704056 
	C203.454208,251.725235 203.151459,251.746414 202.848694,251.767593 
	C202.500092,255.758698 202.151489,259.749786 201.830750,263.421875 
	C205.571152,263.421875 208.610992,263.421875 212.211502,263.421875 
	C211.907043,259.212280 211.595093,254.899078 211.283142,250.585876 
	C209.966064,253.348251 209.679810,256.098206 208.875168,258.687042 
	C208.630493,259.474304 206.956039,259.817169 205.340897,259.807556 
z"/>
<path fill="#000000" opacity="1.000000" stroke="none" 
	d="
M243.934631,141.058044 
	C245.286926,139.757599 246.662613,138.021896 247.868103,138.132980 
	C251.156403,138.436020 254.922623,146.285873 253.186111,149.220840 
	C252.247910,150.806534 250.114197,152.850555 248.725159,152.706589 
	C247.017731,152.529648 244.754883,150.567688 244.130722,148.864700 
	C243.323883,146.663345 243.899826,143.955185 243.934631,141.058044 
z"/>
<path fill="#000000" opacity="1.000000" stroke="none" 
	d="
M108.915512,236.928635 
	C108.993706,236.124695 109.071892,235.320755 109.155090,234.465317 
	C114.574226,236.776733 115.528259,240.745758 110.967896,245.780746 
	C111.225365,243.425461 111.569740,241.073715 111.666031,238.711853 
	C111.685005,238.246399 110.747589,237.741959 109.773170,237.283234 
	C109.168571,237.183517 109.042046,237.056076 108.915512,236.928635 
z"/>
<path fill="#000000" opacity="1.000000" stroke="none" 
	d="
M109.477127,237.509491 
	C109.300529,238.345322 108.941902,238.982590 108.137062,240.412750 
	C108.236122,238.777512 108.283470,237.995911 108.623169,237.071472 
	C109.042046,237.056076 109.168571,237.183517 109.477127,237.509491 
z"/>
<path fill="#FFCD66" opacity="1.000000" stroke="none" 
	d="
M155.015610,69.574295 
	C155.015610,69.574295 154.714386,69.862579 154.436447,69.475883 
	C147.450348,73.776329 140.391617,74.418015 132.974579,70.924965 
	C132.974579,70.924965 133.028595,70.968330 132.940750,70.652054 
	C131.211273,69.217583 129.569641,68.099388 127.928001,66.981186 
	C127.928001,66.981186 127.972786,67.032372 128.365616,66.788239 
	C125.086609,60.820663 125.536118,54.937366 128.076950,48.972954 
	C128.076950,48.972954 128.032562,49.027889 128.340225,48.943375 
	C130.104950,46.881756 131.561996,44.904644 133.019043,42.927536 
	C133.019043,42.927532 132.967697,42.972599 133.216949,43.371117 
	C139.781937,40.820545 145.985596,40.443432 151.992722,44.576889 
	C153.018829,45.585667 154.044952,46.594444 155.511795,48.119881 
	C158.857544,54.901836 159.615662,61.032558 155.070374,66.980492 
	C154.646515,67.535133 155.015015,68.695290 155.015610,69.574295 
z"/>
<path fill="#000000" opacity="1.000000" stroke="none" 
	d="
M132.634186,71.218155 
	C140.391617,74.418015 147.450348,73.776329 154.365814,69.552567 
	C149.655991,76.352074 137.100571,76.621872 132.634186,71.218155 
z"/>
<path fill="#000000" opacity="1.000000" stroke="none" 
	d="
M155.264389,69.286285 
	C155.015015,68.695290 154.646515,67.535133 155.070374,66.980492 
	C159.615662,61.032558 158.857544,54.901836 155.690369,48.321682 
	C156.273529,48.307796 157.529572,48.353245 157.900406,48.949368 
	C161.503677,54.741642 160.368103,63.728886 155.264389,69.286285 
z"/>
<path fill="#000000" opacity="1.000000" stroke="none" 
	d="
M152.447845,44.347321 
	C145.985596,40.443432 139.781937,40.820545 133.188416,43.389877 
	C139.732147,38.395279 148.249237,38.867149 152.447845,44.347321 
z"/>
<path fill="#000000" opacity="1.000000" stroke="none" 
	d="
M127.758377,48.629360 
	C125.536118,54.937366 125.086609,60.820663 128.384247,66.816696 
	C123.475807,60.953182 123.758766,54.671001 127.758377,48.629360 
z"/>
<path fill="#000000" opacity="1.000000" stroke="none" 
	d="
M132.650146,42.963051 
	C131.561996,44.904644 130.104950,46.881756 128.318329,48.971088 
	C129.419601,47.055065 130.850418,45.026817 132.650146,42.963051 
z"/>
<path fill="#000000" opacity="1.000000" stroke="none" 
	d="
M127.963455,67.363358 
	C129.569641,68.099388 131.211273,69.217583 132.967957,70.673492 
	C131.388306,69.922646 129.693604,68.834091 127.963455,67.363358 
z"/>
<path fill="#000000" opacity="1.000000" stroke="none" 
	d="
M225.146606,249.011093 
	C221.878265,248.446091 219.065689,247.887375 216.308594,247.339676 
	C215.489655,241.954056 216.425339,237.837646 220.694427,235.133316 
	C225.418060,232.141068 232.155350,231.941010 235.745377,235.618347 
	C237.736160,237.657562 238.517136,241.387878 238.694275,244.423019 
	C238.760147,245.551895 235.709000,247.382568 233.794327,247.979919 
	C231.207581,248.786972 228.346039,248.713196 225.146606,249.011093 
z"/>
<path fill="#000000" opacity="1.000000" stroke="none" 
	d="
M187.962418,248.020020 
	C185.666992,248.015823 183.843384,248.058853 182.023941,247.990814 
	C175.074387,247.730927 173.285263,244.040527 176.713318,237.754166 
	C179.555984,232.541245 184.270172,232.543091 188.992813,233.087769 
	C193.658569,233.625885 196.340057,236.987656 197.932022,241.169693 
	C198.431686,242.482330 198.494904,243.961121 199.018387,246.753235 
	C195.525116,247.170166 191.980637,247.593201 187.962418,248.020020 
z"/>
<path fill="#000000" opacity="1.000000" stroke="none" 
	d="
M205.638672,260.085571 
	C206.956039,259.817169 208.630493,259.474304 208.875168,258.687042 
	C209.679810,256.098206 209.966064,253.348251 211.283142,250.585876 
	C211.595093,254.899078 211.907043,259.212280 212.211502,263.421875 
	C208.610992,263.421875 205.571152,263.421875 201.830750,263.421875 
	C202.151489,259.749786 202.500092,255.758698 202.848694,251.767593 
	C203.151459,251.746414 203.454208,251.725235 203.756973,251.704056 
	C204.284943,254.405228 204.812927,257.106384 205.638672,260.085571 
z"/>
<path fill="#000000" opacity="1.000000" stroke="none" 
	d="
M233.469315,212.513214 
	C232.989655,213.147003 232.337814,213.574402 231.189041,213.849884 
	C230.560684,213.575867 230.429276,213.453796 230.297852,213.331711 
	C230.963364,212.886337 231.628860,212.440964 232.608124,211.958740 
	C233.046967,212.050217 233.172058,212.178513 233.469315,212.513214 
z"/>
<path fill="#000000" opacity="1.000000" stroke="none" 
	d="
M230.881775,213.888763 
	C230.510529,214.295074 229.949631,214.510544 229.388733,214.726013 
	C229.546326,214.387299 229.703934,214.048599 230.079697,213.520813 
	C230.429276,213.453796 230.560684,213.575867 230.881775,213.888763 
z"/>
</svg>